HIERARCHY
ROOT joint_Root
{
	OFFSET 0.0 0.0 0.0
	CHANNELS 6 Xposition Yposition Zposition Zrotation Xrotation Yrotation 
	JOINT Hips
	{
		OFFSET -0.726466 93.3139 -2.00062
		CHANNELS 6 Xposition Yposition Zposition Zrotation Xrotation Yrotation 
		JOINT Spine
		{
			OFFSET 15.7357 0.0 0.0
			CHANNELS 6 Xposition Yposition Zposition Zrotation Xrotation Yrotation 
			JOINT Chest
			{
				OFFSET 8.98455 -0.406207 0.0
				CHANNELS 6 Xposition Yposition Zposition Zrotation Xrotation Yrotation 
				JOINT Neck
				{
					OFFSET 16.3773 0.0 0.0
					CHANNELS 6 Xposition Yposition Zposition Zrotation Xrotation Yrotation 
					JOINT Head
					{
						OFFSET 6.45672 0.0 0.0
						CHANNELS 6 Xposition Yposition Zposition Zrotation Xrotation Yrotation 
						End Site
						{
							OFFSET 0.0 0.0 0.0
						}
					}
				}
				JOINT Shoulder_L
				{
					OFFSET 12.9942 -0.242716 4.98039
					CHANNELS 6 Xposition Yposition Zposition Zrotation Xrotation Yrotation 
					JOINT UpperArm_L
					{
						OFFSET 5.34809 0.0 0.0
						CHANNELS 6 Xposition Yposition Zposition Zrotation Xrotation Yrotation 
						JOINT LowerArm_L
						{
							OFFSET 24.3286 1.87007e-05 0.0
							CHANNELS 6 Xposition Yposition Zposition Zrotation Xrotation Yrotation 
							JOINT Hand_L
							{
								OFFSET 22.2916 0.0 0.0
								CHANNELS 6 Xposition Yposition Zposition Zrotation Xrotation Yrotation 
								End Site
								{
									OFFSET 0.0 0.0 0.0
								}
							}
						}
					}
				}
				JOINT Shoulder_R
				{
					OFFSET 12.9945 -0.242716 -4.98039
					CHANNELS 6 Xposition Yposition Zposition Zrotation Xrotation Yrotation 
					JOINT UpperArm_R
					{
						OFFSET -5.34813 0.0 0.0
						CHANNELS 6 Xposition Yposition Zposition Zrotation Xrotation Yrotation 
						JOINT LowerArm_R
						{
							OFFSET -24.3289 0.000322201 0.0
							CHANNELS 6 Xposition Yposition Zposition Zrotation Xrotation Yrotation 
							JOINT Hand_R
							{
								OFFSET -22.2915 -0.000108084 0.0
								CHANNELS 6 Xposition Yposition Zposition Zrotation Xrotation Yrotation 
								End Site
								{
									OFFSET 0.0 0.0 0.0
								}
							}
						}
					}
				}
			}
		}
		JOINT UpperLeg_L
		{
			OFFSET -2.19248 -6.46944 0.0
			CHANNELS 6 Xposition Yposition Zposition Zrotation Xrotation Yrotation 
			JOINT LowerLeg_L
			{
				OFFSET 39.0811 0.0 -1.23785e-05
				CHANNELS 6 Xposition Yposition Zposition Zrotation Xrotation Yrotation 
				JOINT Foot_L
				{
					OFFSET 40.9854 0.0 -1.26872e-05
					CHANNELS 6 Xposition Yposition Zposition Zrotation Xrotation Yrotation 
					JOINT Toes_L
					{
						OFFSET 11.7543 0.0 0.0
						CHANNELS 6 Xposition Yposition Zposition Zrotation Xrotation Yrotation 
						End Site
						{
							OFFSET 0.0 0.0 0.0
						}
					}
				}
			}
		}
		JOINT UpperLeg_R
		{
			OFFSET -2.19251 6.46944 0.0
			CHANNELS 6 Xposition Yposition Zposition Zrotation Xrotation Yrotation 
			JOINT LowerLeg_R
			{
				OFFSET -39.0811 -0.00228153 -0.0401928
				CHANNELS 6 Xposition Yposition Zposition Zrotation Xrotation Yrotation 
				JOINT Foot_R
				{
					OFFSET -40.9854 0.0 0.0
					CHANNELS 6 Xposition Yposition Zposition Zrotation Xrotation Yrotation 
					JOINT Toes_R
					{
						OFFSET -11.7543 0.0 0.0
						CHANNELS 6 Xposition Yposition Zposition Zrotation Xrotation Yrotation 
						End Site
						{
							OFFSET 0.0 0.0 0.0
						}
					}
				}
			}
		}
	}
}
MOTION
Frames:	9
Frame Time:	0.0333333
0.000000 0.000000 0.000000 0.000000 0.000000 -0.000000 -5.010370 89.569900 506.221000 -88.056500 4.359330 -179.626000 15.735700 0.000005 -0.000001 84.124100 83.140500 -83.462800 8.984550 -0.406207 -0.000000 5.890690 -1.411630 1.393740 16.377300 -0.000001 -0.000001 1.699570 0.416710 -1.210750 6.456720 -0.000001 -0.000000 2.548940 1.517170 -3.103090 12.994200 -0.242716 4.980390 -89.802300 -0.591829 -71.523100 5.348090 -0.000007 -0.000001 -69.303100 37.157800 -15.910600 24.328600 0.000019 0.000005 1.830720 3.075750 -30.778600 22.291600 -0.000001 0.000005 11.746100 5.498850 -6.482460 12.994500 -0.242716 -4.980390 88.904400 3.672210 -73.373600 -5.348130 -0.000001 -0.000004 -75.562800 18.703900 -6.714840 -24.328900 0.000322 -0.000009 0.174005 15.005200 -0.675425 -22.291500 -0.000108 -0.000004 9.955190 5.240490 1.679620 -2.192480 -6.469440 -0.000000 179.535000 -10.065700 -8.904450 39.081100 -0.000007 -0.000012 -0.166442 0.239213 34.830100 40.985400 -0.000006 -0.000013 3.903750 0.220528 -76.204200 11.754300 -0.000000 0.000003 -0.000166 -0.001579 -16.637400 -2.192510 6.469440 -0.000001 175.774000 10.571500 163.084000 -39.081100 -0.002282 -0.040193 0.138600 -0.056215 67.461600 -40.985400 0.000008 0.000006 1.074760 -4.389830 -50.783400 -11.754300 -0.000006 -0.000006 -0.021878 -0.177478 -23.827900
0.000000 0.000000 0.000000 0.000000 0.000000 -0.000000 -4.894290 90.161800 503.839000 -87.027200 2.229500 -179.751000 15.735700 0.000005 -0.000001 77.710200 83.054400 -76.661500 8.984550 -0.406207 -0.000000 5.840990 -2.966890 2.246860 16.377300 -0.000001 -0.000001 1.578390 -0.005181 -1.460540 6.456720 -0.000001 -0.000000 2.484550 1.891240 -3.109350 12.994200 -0.242716 4.980390 -89.651200 -1.116340 -72.642800 5.348090 -0.000007 -0.000001 -65.457500 36.854900 -22.650500 24.328600 0.000019 0.000005 1.696940 2.334060 -36.044100 22.291600 -0.000001 0.000005 12.160900 5.529770 -7.790470 12.994500 -0.242716 -4.980390 89.051400 3.035200 -72.634700 -5.348130 -0.000001 -0.000004 -75.528000 15.908300 -3.919350 -24.328900 0.000322 -0.000009 0.040149 14.492900 -0.164570 -22.291500 -0.000108 -0.000004 9.151780 5.226850 2.037700 -2.192480 -6.469440 -0.000000 -178.812000 -9.823000 -5.243590 39.081100 -0.000007 -0.000012 -0.156270 0.263150 30.704000 40.985400 -0.000006 -0.000013 4.111980 2.167980 -75.843100 11.754300 -0.000000 0.000003 -0.000095 -0.000981 -16.615200 -2.192510 6.469440 -0.000001 178.541000 11.095700 158.978000 -39.081100 -0.002282 -0.040193 0.093566 -0.042230 64.960800 -40.985400 0.000008 0.000006 2.093250 -5.697690 -52.971000 -11.754300 -0.000006 -0.000006 -0.023302 -0.184934 -24.135600
0.000000 0.000000 0.000000 0.000000 0.000000 -0.000000 -4.746970 90.713100 501.566000 -86.109300 0.466003 179.895000 15.735700 0.000005 -0.000001 72.927400 82.964100 -71.515000 8.984550 -0.406207 -0.000000 5.750250 -4.145880 3.030810 16.377300 -0.000001 -0.000001 1.306770 -0.439709 -1.688430 6.456720 -0.000001 -0.000000 2.198130 2.254020 -3.078590 12.994200 -0.242716 4.980390 -89.563000 -1.462370 -73.357900 5.348090 -0.000007 -0.000001 -62.147900 35.001700 -28.913600 24.328600 0.000019 0.000005 0.361199 0.421988 -40.628700 22.291600 -0.000001 0.000005 11.622700 5.541310 -8.305480 12.994500 -0.242716 -4.980390 89.119400 2.707060 -71.973500 -5.348130 -0.000001 -0.000004 -74.578500 15.879100 -1.404430 -24.328900 0.000322 -0.000009 0.403951 14.420700 -1.625600 -22.291500 -0.000108 -0.000004 8.215240 5.236990 1.773250 -2.192480 -6.469440 -0.000000 -177.515000 -9.391770 -1.747810 39.081100 -0.000007 -0.000012 -0.063885 0.130613 26.064200 40.985400 -0.000006 -0.000013 5.240250 3.195350 -75.213400 11.754300 -0.000000 0.000003 -0.713687 -0.897536 -16.021100 -2.192510 6.469440 -0.000001 -178.836000 11.588500 155.579000 -39.081100 -0.002282 -0.040193 0.056277 -0.031773 59.091500 -40.985400 0.000008 0.000006 2.498830 -7.363160 -54.857100 -11.754300 -0.000006 -0.000006 -0.023321 -0.185033 -24.139700
0.000000 0.000000 0.000000 0.000000 0.000000 -0.000000 -4.585840 91.067900 499.312000 -85.469800 -0.942811 179.545000 15.735700 0.000005 -0.000001 69.485600 82.891400 -67.829700 8.984550 -0.406207 -0.000000 5.640890 -5.001050 3.556280 16.377300 -0.000001 -0.000001 1.136910 -0.703043 -1.640580 6.456720 -0.000001 -0.000000 1.762910 2.450640 -3.136930 12.994200 -0.242716 4.980390 -89.457500 -1.866950 -73.792900 5.348090 -0.000007 -0.000001 -59.404900 32.711100 -34.649500 24.328600 0.000019 0.000005 -1.057440 -1.091830 -44.070400 22.291600 -0.000001 0.000005 11.637900 5.557780 -9.076140 12.994500 -0.242716 -4.980390 89.108100 2.652370 -71.407200 -5.348130 -0.000001 -0.000004 -73.405000 17.206800 0.840630 -24.328900 0.000322 -0.000009 0.953048 14.261700 -3.867510 -22.291500 -0.000108 -0.000004 8.503870 5.267010 0.980048 -2.192480 -6.469440 -0.000000 -176.462000 -9.074070 0.578412 39.081100 -0.000007 -0.000012 -0.000424 0.000984 23.304200 40.985400 -0.000006 -0.000013 5.801330 4.090980 -73.811600 11.754300 -0.000000 0.000003 -1.132040 -1.418350 -17.192800 -2.192510 6.469440 -0.000001 -176.505000 12.495400 153.335000 -39.081100 -0.002282 -0.040193 0.031540 -0.023540 50.239400 -40.985400 0.000008 0.000006 2.113170 -7.817700 -55.278300 -11.754300 -0.000006 -0.000006 -0.022797 -0.182317 -24.027600
0.000000 0.000000 0.000000 0.000000 0.000000 -0.000000 -4.370260 91.104300 497.015000 -85.133000 -1.915940 179.087000 15.735700 0.000005 -0.000001 67.312000 82.846700 -65.524400 8.984550 -0.406207 -0.000000 5.542990 -5.540080 3.841890 16.377300 -0.000001 -0.000001 0.882510 -0.817026 -1.545810 6.456720 -0.000001 -0.000000 1.218470 2.768370 -3.120050 12.994200 -0.242716 4.980390 -89.348000 -2.276380 -74.013000 5.348090 -0.000007 -0.000001 -57.158900 30.365400 -39.855400 24.328600 0.000019 0.000005 -1.136890 -1.073360 -46.659500 22.291600 -0.000001 0.000005 12.907800 5.562840 -9.324400 12.994500 -0.242716 -4.980390 89.079200 2.679160 -71.025700 -5.348130 -0.000001 -0.000004 -72.415100 18.761800 2.462170 -24.328900 0.000322 -0.000009 1.420030 13.663600 -5.995600 -22.291500 -0.000108 -0.000004 9.942350 5.296870 0.163133 -2.192480 -6.469440 -0.000000 -175.578000 -8.659550 1.920650 39.081100 -0.000007 -0.000012 -0.002031 0.004950 22.312700 40.985400 -0.000006 -0.000013 5.111430 5.104840 -72.641500 11.754300 -0.000000 0.000003 -0.792610 -1.023410 -19.496200 -2.192510 6.469440 -0.000001 -174.164000 14.165600 151.975000 -39.081100 -0.002282 -0.040193 0.015591 -0.015053 39.277700 -40.985400 0.000008 0.000006 1.348890 -6.288090 -53.846300 -11.754300 -0.000006 -0.000006 -0.022462 -0.180563 -23.955200
0.000000 0.000000 0.000000 0.000000 0.000000 -0.000000 -4.148540 90.771800 494.502000 -85.345300 -2.401910 178.516000 15.735700 0.000005 -0.000001 65.690500 82.904200 -63.966000 8.984550 -0.406207 -0.000000 5.280030 -5.867050 3.718100 16.377300 -0.000001 -0.000001 0.689312 -0.672930 -1.434470 6.456720 -0.000001 -0.000000 0.769027 3.222940 -2.999510 12.994200 -0.242716 4.980390 -89.268900 -2.560330 -74.056300 5.348090 -0.000007 -0.000001 -54.871700 28.283400 -44.156100 24.328600 0.000019 0.000005 -1.018640 -0.891981 -48.801300 22.291600 -0.000001 0.000005 14.122700 5.564270 -9.399130 12.994500 -0.242716 -4.980390 89.077300 2.651270 -70.803400 -5.348130 -0.000001 -0.000004 -71.695200 19.606500 3.328020 -24.328900 0.000322 -0.000009 1.651780 12.980200 -7.320650 -22.291500 -0.000108 -0.000004 11.307800 5.316410 -0.391577 -2.192480 -6.469440 -0.000000 -175.279000 -8.506990 2.859070 39.081100 -0.000007 -0.000012 -0.002640 0.006390 22.446800 40.985400 -0.000006 -0.000013 4.759870 5.768420 -72.386400 11.754300 -0.000000 0.000003 -0.657103 -0.864004 -21.652500 -2.192510 6.469440 -0.000001 -171.868000 16.675200 151.222000 -39.081100 -0.002282 -0.040193 0.004908 -0.003055 27.660500 -40.985400 0.000008 0.000006 -0.817988 -1.673290 -52.324700 -11.754300 -0.000006 -0.000006 -0.022426 -0.180372 -23.947300
0.000000 0.000000 0.000000 0.000000 0.000000 -0.000000 -3.931870 90.144600 491.555000 -86.027800 -2.655470 178.137000 15.735700 0.000005 -0.000001 63.919200 82.985100 -62.401000 8.984550 -0.406207 -0.000000 4.942180 -6.193390 3.302770 16.377300 -0.000001 -0.000001 0.753751 -0.506665 -1.416070 6.456720 -0.000001 -0.000000 0.587465 3.664780 -2.911630 12.994200 -0.242716 4.980390 -89.209500 -2.781520 -74.127700 5.348090 -0.000007 -0.000001 -53.687100 26.222800 -46.812300 24.328600 0.000019 0.000005 -1.188600 -0.988095 -50.267000 22.291600 -0.000001 0.000005 14.548500 5.566030 -9.487020 12.994500 -0.242716 -4.980390 89.100000 2.584610 -70.794500 -5.348130 -0.000001 -0.000004 -71.220700 19.343400 3.439940 -24.328900 0.000322 -0.000009 1.662860 12.622300 -7.572000 -22.291500 -0.000108 -0.000004 11.969700 5.319990 -0.495495 -2.192480 -6.469440 -0.000000 -175.375000 -8.459970 4.062300 39.081100 -0.000007 -0.000012 -0.005500 0.012841 23.186700 40.985400 -0.000006 -0.000013 4.381670 6.333010 -72.335000 11.754300 -0.000000 0.000003 -0.478891 -0.687088 -24.362700 -2.192510 6.469440 -0.000001 -169.682000 19.648800 150.995000 -39.081100 -0.002282 -0.040193 -0.000809 0.013211 17.379600 -40.985400 0.000008 0.000006 -4.751110 3.209160 -51.703600 -11.754300 -0.000006 -0.000006 -0.022510 -0.180812 -23.965400
0.000000 0.000000 0.000000 0.000000 0.000000 -0.000000 -3.633310 89.358300 488.087000 -86.492100 -2.681230 178.145000 15.735700 0.000005 -0.000001 62.803900 83.057800 -61.384700 8.984550 -0.406207 -0.000000 4.687400 -6.372380 3.098660 16.377300 -0.000001 -0.000001 1.082840 -0.258252 -1.492950 6.456720 -0.000001 -0.000000 0.629457 3.911380 -2.953260 12.994200 -0.242716 4.980390 -89.230900 -2.701970 -74.103800 5.348090 -0.000007 -0.000001 -52.670000 24.825500 -48.350700 24.328600 0.000019 0.000005 -1.551890 -1.257670 -50.987600 22.291600 -0.000001 0.000005 14.564000 5.566230 -9.496850 12.994500 -0.242716 -4.980390 89.007900 2.854560 -70.827100 -5.348130 -0.000001 -0.000004 -70.494700 18.658900 2.657170 -24.328900 0.000322 -0.000009 1.473180 12.610900 -6.722670 -22.291500 -0.000108 -0.000004 12.142100 5.310370 -0.220319 -2.192480 -6.469440 -0.000000 -175.129000 -8.303870 5.654290 39.081100 -0.000007 -0.000012 -0.010419 0.022833 24.527200 40.985400 -0.000006 -0.000013 4.017360 6.848300 -71.878100 11.754300 -0.000000 0.000003 -0.285252 -0.515332 -27.940900 -2.192510 6.469440 -0.000001 -167.235000 22.112000 150.348000 -39.081100 -0.002282 -0.040193 -0.001314 0.022104 11.878400 -40.985400 0.000008 0.000006 -7.246810 3.130150 -51.188100 -11.754300 -0.000006 -0.000006 -0.021659 -0.176307 -23.779600
0.000000 0.000000 0.000000 0.000000 0.000000 -0.000000 -3.179720 88.510800 483.999000 -86.645400 -2.946880 178.410000 15.735700 0.000005 -0.000001 60.859800 83.136800 -59.379000 8.984550 -0.406207 -0.000000 4.336120 -6.717670 3.215560 16.377300 -0.000001 -0.000001 1.560310 -0.073382 -1.735760 6.456720 -0.000001 -0.000000 1.134010 4.248350 -3.015630 12.994200 -0.242716 4.980390 -89.317500 -2.379920 -73.993800 5.348090 -0.000007 -0.000001 -51.920300 24.359300 -48.382400 24.328600 0.000019 0.000005 -1.553900 -1.252120 -51.148100 22.291600 -0.000001 0.000005 14.544200 5.567820 -9.577160 12.994500 -0.242716 -4.980390 88.765900 3.532120 -70.726500 -5.348130 -0.000001 -0.000004 -69.470000 18.656900 1.161680 -24.328900 0.000322 -0.000009 1.137760 12.761300 -5.142600 -22.291500 -0.000108 -0.000004 12.309700 5.295290 0.203579 -2.192480 -6.469440 -0.000000 -174.382000 -7.463440 7.240970 39.081100 -0.000007 -0.000012 -0.011790 0.023066 27.074500 40.985400 -0.000006 -0.000013 3.182450 7.358790 -71.571500 11.754300 -0.000000 0.000003 0.256639 -0.012014 -27.762800 -2.192510 6.469440 -0.000001 -165.535000 21.244300 147.968000 -39.081100 -0.002282 -0.040193 -0.047773 0.184598 15.473600 -40.985400 0.000008 0.000006 0.505951 -1.972730 -54.387400 -11.754300 -0.000006 -0.000006 -0.023006 -0.183401 -24.072300
